<?xml version="1.0" encoding="utf-8"?>
<!-- Generator: Adobe Illustrator 27.5.0, SVG Export Plug-In . SVG Version: 6.00 Build 0)  -->
<svg version="1.1" xmlns="http://www.w3.org/2000/svg" xmlns:xlink="http://www.w3.org/1999/xlink" x="0px" y="0px"
	 viewBox="0 0 500 500" style="enable-background:new 0 0 500 500;" xml:space="preserve">
<g id="BACKGROUND">
	<rect style="fill:#FFFFFF;" width="500" height="500"/>
</g>
<g id="OBJECTS">
	<path style="opacity:0.4;fill:#E2DAD7;" d="M467,434.033c0,6.353-97.154,11.504-217,11.504s-217-5.15-217-11.504
		c0-6.354,97.154-11.506,217-11.506S467,427.68,467,434.033z"/>
	<path style="fill:#99E5D9;" d="M413.373,168.729c0.755-18.258-34.13-11.153-43.276-8.981c3.742-3.506,7.697-6.759,11.885-9.666
		c11.344,1.288,49.561,2.227,41.235-14.722c-6.511-13.259-25.572-0.831-36.335,7.735c-6.8,3.899-13.049,8.702-18.803,14.086
		c6.222-11.08,20.841-43.289,2.618-42.57c-19.122,0.754-7.363,38.223-5.097,44.95c-5.723,5.656-10.936,11.867-15.705,18.294
		c4.565-12.186,11.839-38.655-3.354-36.141c-16.657,2.756-3.027,33.549,0.246,40.44c-0.44,0.627-0.876,1.255-1.31,1.885
		c-3.98,5.788-7.679,11.768-11.14,17.89c2.465-11.398,6.479-42.725-9.006-37.329c-16.298,5.678,3.586,34.835,7.412,40.19
		c-4.388,7.983-8.383,16.192-12.055,24.533c-0.077-11.957-2.914-42.64-16.742-34.165c-14.336,8.785,9.622,32.031,15.376,37.308
		c-2.028,4.729-3.967,9.493-5.811,14.278c-0.966,2.506-1.915,5.024-2.845,7.554c0.092-11.063-2.479-43.973-16.741-35.232
		c-14.76,9.044,11.071,33.417,15.837,37.727c-2.714,7.549-5.206,15.193-7.229,22.93c-0.528,2.018,2.509,3.256,3.044,1.213
		c2.153-8.226,4.849-16.342,7.76-24.351c8.668,1.102,46.194,2.15,38.185-13.66c-7.183-14.177-30.01,4.711-37.321,11.304
		c0.568-1.541,1.142-3.078,1.723-4.611c2.165-5.715,4.459-11.393,6.896-17.014c7.518,1.121,46.911,2.573,38.724-13.587
		c-7.417-14.638-31.511,5.973-37.985,11.906c3.831-8.707,8.015-17.265,12.635-25.574c8.007,2.878,44.818,12.056,40.336-5.177
		c-4.068-15.647-31.239-1.308-39.298,3.345c3.26-5.757,6.725-11.395,10.434-16.872c0.719-1.063,1.453-2.122,2.197-3.178
		c6.335,3.785,42.57,20.152,41.063,2.028c-1.405-16.856-33.326-5.682-40.372-3.002c5.417-7.598,11.461-14.954,18.229-21.494
		C375.677,166.276,412.547,188.645,413.373,168.729z"/>
	<g>
		<path style="fill:#FFD68D;" d="M277.647,253.236c0,0-40.467-104.835,52.969-159.961
			C330.616,93.275,370.131,187.941,277.647,253.236z"/>
		<g style="opacity:0.3;">
			<g>
				<path style="fill:#FFFFFF;" d="M281.113,245.745c12.892-38.933,25.782-77.866,38.676-116.797
					c2.581-7.794,5.162-15.587,7.741-23.38c0.417-1.256-1.531-1.901-1.946-0.646c-12.893,38.933-25.783,77.865-38.676,116.797
					c-2.58,7.793-5.161,15.587-7.743,23.381C278.751,246.355,280.697,246.999,281.113,245.745L281.113,245.745z"/>
			</g>
			<g>
				<g>
					<path style="fill:#FFFFFF;" d="M277.17,178.046c3.599,13.64,7.199,27.277,10.799,40.915c0.334,1.274,2.345,0.857,2.006-0.425
						c-3.6-13.639-7.199-27.278-10.799-40.915C278.842,176.346,276.831,176.763,277.17,178.046L277.17,178.046z"/>
				</g>
				<g>
					<path style="fill:#FFFFFF;" d="M295.95,136.266c2.365,12.387,4.73,24.774,7.097,37.161c0.248,1.299,2.256,0.874,2.007-0.427
						c-2.365-12.387-4.731-24.774-7.098-37.161C297.708,134.541,295.701,134.966,295.95,136.266L295.95,136.266z"/>
				</g>
			</g>
			<g>
				<g>
					<path style="fill:#FFFFFF;" d="M321.378,191.595c-11.027,8.795-22.055,17.589-33.083,26.384
						c-1.037,0.827,0.324,2.361,1.354,1.54c11.029-8.796,22.056-17.591,33.085-26.385
						C323.771,192.307,322.407,190.774,321.378,191.595L321.378,191.595z"/>
				</g>
				<g>
					<path style="fill:#FFFFFF;" d="M331.246,146.864c-9.291,8.527-18.582,17.054-27.874,25.58c-0.976,0.896,0.382,2.434,1.355,1.54
						c9.292-8.527,18.583-17.054,27.873-25.581C333.577,147.508,332.221,145.97,331.246,146.864L331.246,146.864z"/>
				</g>
			</g>
		</g>
	</g>
	<path style="fill:#FFBDD8;" d="M271.793,145.856c-13.114-17.992-41.013,15.221-48.091,24.224c0.912-6.179,2.22-12.279,4.012-18.226
		c11.798-7.369,48.97-35.433,28.184-45.294c-16.259-7.715-25.025,18.586-28.803,34.914c-3.532,8.872-5.855,18.19-7.265,27.687
		c-2.46-15.285-12.922-57.092-29.761-42.597c-17.672,15.21,21.94,42.045,29.2,46.745c-1.174,9.732-1.442,19.61-1.121,29.355
		c-4.88-15.084-17.996-45.85-30.586-31.938c-13.803,15.25,22.534,34.302,30.879,38.394c0.055,0.932,0.114,1.862,0.178,2.792
		c0.588,8.538,1.592,17.046,2.928,25.51c-6.285-12.743-26.194-45.672-36.878-28.789c-11.244,17.767,29.818,30.516,37.526,32.726
		c1.864,10.941,4.273,21.8,7.09,32.54c-9.133-11.35-35.091-38.472-41.862-19.908c-7.02,19.244,33.453,23.268,42.941,23.941
		c1.647,6.051,3.409,12.063,5.275,18.025c0.977,3.123,1.979,6.244,3.01,9.363c-8.296-10.623-35.688-40.072-42.67-20.926
		c-7.226,19.811,35.884,23.49,43.699,23.99c3.129,9.26,6.545,18.441,10.475,27.354c1.025,2.326,4.863,1.205,3.825-1.147
		c-4.18-9.482-7.757-19.266-11.05-29.113c9.107-5.518,45.7-32.955,26.078-41.967c-17.595-8.084-25.061,27.234-27.04,39.063
		c-0.624-1.898-1.242-3.801-1.85-5.703c-2.265-7.092-4.379-14.248-6.312-21.457c8.02-4.627,46.703-33.093,26.648-42.307
		c-18.169-8.345-25.537,29.578-27.218,40.143c-2.942-11.21-5.437-22.544-7.325-33.973c9.819-3.321,51.895-22.461,34.56-35.504
		c-15.739-11.845-30.796,22.425-34.958,32.97c-1.252-7.962-2.219-15.967-2.831-24.002c-0.119-1.56-0.221-3.126-0.313-4.697
		c8.912-1.19,55.885-13.034,40.713-29.181c-14.114-15.018-36.099,19.831-40.792,27.728c-0.589-11.354-0.397-22.952,1.103-34.319
		C233.971,172.081,286.097,165.482,271.793,145.856z"/>
	<g>
		<path style="fill:#8B97D1;" d="M188.706,343.783c0.599-1.457,36.198-88.278,23.088-95.523
			c-13.221-7.307-26.188,23.413-26.188,23.413s21.855-67.3,5.389-71.327c-16.466-4.027-23.436,35.518-23.436,35.518
			s-20.023-81.908-36.317-76.924l-0.001-0.002c-0.004,0.001-0.007,0.004-0.011,0.005c-0.004,0.001-0.008,0.001-0.012,0.002l0,0.002
			c-16.249,5.134,13.697,83.957,13.697,83.957s-28.162-28.624-39.443-15.972c-11.28,12.654,44.881,55.7,44.881,55.7
			s-28.1-17.953-34.848-4.439c-6.691,13.4,71.856,64.734,73.177,65.598l0.009,0.027c0,0,0.005-0.014,0.007-0.016
			c0.003,0,0.016,0.008,0.016,0.008L188.706,343.783z"/>
		<g style="opacity:0.2;">
			<g>
				<path style="fill:#FFFFFF;" d="M133.755,172.137c17.841,57.389,35.683,114.777,53.523,172.166
					c1.675,5.387,3.35,10.775,5.025,16.162c0.581,1.869,3.479,0.969,2.898-0.902c-17.841-57.387-35.683-114.774-53.523-172.163
					c-1.675-5.388-3.35-10.775-5.025-16.163C136.072,169.368,133.175,170.269,133.755,172.137L133.755,172.137z"/>
			</g>
			<g>
				<path style="fill:#FFFFFF;" d="M131.733,287.318c16.545,12.439,33.089,24.877,49.635,37.314
					c0.961,0.725,2.111,0.348,2.501-0.777c6.827-19.705,13.655-39.408,20.482-59.111c0.643-1.854-2.323-2.514-2.956-0.686
					c-6.827,19.703-13.654,39.408-20.481,59.111c0.833-0.258,1.667-0.52,2.501-0.777c-16.544-12.438-33.089-24.877-49.634-37.315
					C132.232,283.914,130.166,286.141,131.733,287.318L131.733,287.318z"/>
			</g>
			<g>
				<path style="fill:#FFFFFF;" d="M115.521,235.165c16.536,12.41,33.072,24.821,49.608,37.231c0.964,0.723,2.11,0.348,2.501-0.777
					c6.836-19.676,13.672-39.352,20.508-59.029c0.643-1.852-2.322-2.511-2.956-0.684c-6.835,19.675-13.672,39.352-20.508,59.03
					c0.834-0.26,1.668-0.521,2.501-0.779c-16.537-12.41-33.073-24.82-49.609-37.231
					C116.019,231.763,113.952,233.989,115.521,235.165L115.521,235.165z"/>
			</g>
		</g>
	</g>
	<g>
		<path style="fill:#99E5D9;" d="M187.552,388.326c0,0-111.011-17.463-111.946-125.946
			C75.606,262.38,177.336,275.576,187.552,388.326z"/>
		<g style="opacity:0.3;">
			<g>
				<path style="fill:#FFFFFF;" d="M182.801,381.574c-27.246-30.654-54.492-61.307-81.737-91.959
					c-5.455-6.137-10.909-12.273-16.363-18.41c-0.878-0.988-2.411,0.375-1.532,1.363c27.246,30.654,54.491,61.307,81.737,91.959
					c5.454,6.137,10.908,12.273,16.362,18.41C182.146,383.926,183.679,382.563,182.801,381.574L182.801,381.574z"/>
			</g>
			<g>
				<g>
					<path style="fill:#FFFFFF;" d="M122.226,351.09c13.608,3.715,27.216,7.426,40.824,11.139c1.271,0.35,1.916-1.6,0.636-1.949
						c-13.608-3.713-27.216-7.426-40.824-11.139C121.591,348.793,120.945,350.742,122.226,351.09L122.226,351.09z"/>
				</g>
				<g>
					<path style="fill:#FFFFFF;" d="M95.463,313.916c11.907,4.154,23.814,8.309,35.721,12.461c1.249,0.438,1.886-1.514,0.635-1.949
						c-11.906-4.154-23.814-8.309-35.721-12.463C94.85,311.531,94.213,313.478,95.463,313.916L95.463,313.916z"/>
				</g>
			</g>
			<g>
				<g>
					<path style="fill:#FFFFFF;" d="M156.089,319.607c2.091,13.949,4.182,27.898,6.273,41.848c0.196,1.313,2.206,0.9,2.01-0.4
						c-2.091-13.953-4.182-27.9-6.273-41.85C157.903,317.893,155.894,318.305,156.089,319.607L156.089,319.607z"/>
				</g>
				<g>
					<path style="fill:#FFFFFF;" d="M122.309,288.668c2.729,12.313,5.458,24.623,8.188,36.935c0.286,1.293,2.297,0.889,2.011-0.402
						c-2.729-12.313-5.458-24.623-8.187-36.936C124.034,286.973,122.023,287.377,122.309,288.668L122.309,288.668z"/>
				</g>
			</g>
		</g>
	</g>
	<g>
		<g>
			<g>
				<path style="fill:#FCB830;" d="M365.299,431.801H131.398v-8.273v-40.055v-8.283h233.901c16.588,0,30.079,12.695,30.079,28.305
					C395.378,419.102,381.887,431.801,365.299,431.801z"/>
			</g>
			<g>
				<g>
					<g>
						<path style="fill:#FE9A30;" d="M297.71,431.801H94.155v-8.273H297.71c12.023,0,21.801-8.992,21.801-20.033
							c0-11.041-9.777-20.021-21.801-20.021H94.155v-8.283H297.71c16.589,0,30.078,12.695,30.078,28.305
							C327.788,419.102,314.299,431.801,297.71,431.801z"/>
					</g>
					<g>
						<path style="fill:#FFFFFF;" d="M297.71,423.527c12.023,0,21.801-8.992,21.801-20.033c0-11.041-9.777-20.021-21.801-20.021
							H105.391c0,0,18.763,16.912,0,40.055H297.71z"/>
						<g>
							<defs>
								<path id="SVGID_1_" d="M297.71,423.527c12.023,0,21.801-8.992,21.801-20.033c0-11.041-9.777-20.021-21.801-20.021H105.391
									c0,0,18.763,16.912,0,40.055H297.71z"/>
							</defs>
							<clipPath id="SVGID_00000107567769981953576680000018160787012297354369_">
								<use xlink:href="#SVGID_1_"  style="overflow:visible;"/>
							</clipPath>
							<g style="clip-path:url(#SVGID_00000107567769981953576680000018160787012297354369_);">
								<rect x="105.391" y="385.211" style="fill:#F7F3EB;" width="215.912" height="4.049"/>
								<rect x="105.391" y="396.244" style="fill:#F7F3EB;" width="215.912" height="4.051"/>
								<rect x="105.391" y="407.287" style="fill:#F7F3EB;" width="215.912" height="4.049"/>
								<rect x="105.391" y="418.33" style="fill:#F7F3EB;" width="215.912" height="4.041"/>
							</g>
						</g>
					</g>
				</g>
			</g>
		</g>
		<g>
			<g>
				<path style="fill:#3DD8B0;" d="M379.553,375.19H191.63v-8.274v-40.055v-8.283h187.922c16.589,0,30.078,12.695,30.078,28.305
					C409.631,362.49,396.142,375.19,379.553,375.19z"/>
			</g>
			<g>
				<g>
					<g>
						<path style="fill:#21B58A;" d="M330.355,375.19H154.387v-8.274h175.968c12.022,0,21.801-8.992,21.801-20.033
							c0-11.041-9.778-20.022-21.801-20.022H154.387v-8.283h175.968c16.588,0,30.078,12.695,30.078,28.305
							C360.434,362.49,346.943,375.19,330.355,375.19z"/>
					</g>
					<g>
						<path style="fill:#FFFFFF;" d="M330.355,366.916c12.022,0,21.801-8.992,21.801-20.033c0-11.041-9.778-20.022-21.801-20.022
							H165.623c0,0,18.763,16.912,0,40.055H330.355z"/>
						<g>
							<defs>
								<path id="SVGID_00000173870299625273760330000011523012472536545948_" d="M330.355,366.916
									c12.022,0,21.801-8.992,21.801-20.033c0-11.041-9.778-20.022-21.801-20.022H165.623c0,0,18.763,16.912,0,40.055H330.355z"/>
							</defs>
							<clipPath id="SVGID_00000104684210168443701240000011259888441664174218_">
								<use xlink:href="#SVGID_00000173870299625273760330000011523012472536545948_"  style="overflow:visible;"/>
							</clipPath>
							<g style="clip-path:url(#SVGID_00000104684210168443701240000011259888441664174218_);">
								<rect x="165.623" y="328.6" style="fill:#F7F3EB;" width="188.325" height="4.049"/>
								<rect x="165.623" y="339.633" style="fill:#F7F3EB;" width="188.325" height="4.049"/>
								<rect x="165.623" y="350.676" style="fill:#F7F3EB;" width="188.325" height="4.049"/>
								<rect x="165.623" y="361.719" style="fill:#F7F3EB;" width="188.325" height="4.041"/>
							</g>
						</g>
					</g>
				</g>
			</g>
		</g>
	</g>
	<g>
		<path style="fill:#D1432D;" d="M310.482,313.174c0,2.973-2.432,5.404-5.403,5.404H270.86c-2.972,0-5.403-2.432-5.403-5.404
			V167.793c0-2.971,2.432-5.403,5.403-5.403h34.219c2.972,0,5.403,2.432,5.403,5.403V313.174z"/>
		<g>
			<rect x="265.457" y="183.947" style="fill:#AF281B;" width="45.025" height="12.774"/>
			<rect x="265.457" y="284.246" style="fill:#AF281B;" width="45.025" height="12.773"/>
		</g>
	</g>
	<g>
		<path style="fill:#8B97D1;" d="M342.668,313.174c0,2.973-2.432,5.404-5.403,5.404H315.92c-2.972,0-5.403-2.432-5.403-5.404
			V142.965c0-2.972,2.432-5.404,5.403-5.404h21.345c2.972,0,5.403,2.432,5.403,5.404V313.174z"/>
		<rect x="317.922" y="150.989" style="fill:#6F81C1;" width="16.782" height="44.533"/>
	</g>
	<g>
		<path style="fill:#F470A1;" d="M387.694,313.174c0,2.973-2.433,5.404-5.403,5.404h-34.22c-2.972,0-5.403-2.432-5.403-5.404V195.38
			c0-2.972,2.432-5.403,5.403-5.403h34.22c2.971,0,5.403,2.432,5.403,5.403V313.174z"/>
		<g>
			<g>
				<rect x="342.668" y="210.578" style="fill:#E5387F;" width="45.026" height="5.492"/>
				<rect x="342.668" y="219.773" style="fill:#E5387F;" width="45.026" height="5.492"/>
			</g>
			<g>
				<g>
					<rect x="342.668" y="282.332" style="fill:#E5387F;" width="45.026" height="5.492"/>
					<rect x="342.668" y="291.527" style="fill:#E5387F;" width="45.026" height="5.492"/>
				</g>
			</g>
		</g>
	</g>
	<g>
		<g>
			<rect x="238.856" y="257.479" style="fill:#312E35;" width="113.301" height="61.413"/>
			<path style="fill:#615D68;" d="M311.219,246.523c-8.641-1.5-22.782-1.5-31.426,0l-69.011,11.987c-8.64,1.5-8.54,3.87,0.226,5.262
				l68.558,10.906c8.768,1.395,23.116,1.395,31.879,0l68.558-10.906c8.765-1.392,8.868-3.762,0.227-5.262L311.219,246.523z"/>
		</g>
		<g>
			<path style="fill:#FCB830;" d="M301.815,260.528c0,2.05-2.822,3.71-6.309,3.71c-3.484,0-6.31-1.66-6.31-3.71
				s2.825-3.711,6.31-3.711C298.993,256.817,301.815,258.478,301.815,260.528z"/>
			<g>
				<path style="fill:#FCB830;" d="M351.869,259.6c-25.221,0-31.142,0-56.362,0c-1.195,0-1.195,1.856,0,1.856
					c20.22,0,21.143,0,41.363,0c4.239,0,8.478,0,12.72,0c0.449,0,0.9,0,1.352,0c0,0.856,0,1.714,0,2.571c0,10.049,0,20.1,0,30.15
					c0,1.195,1.855,1.195,1.855,0c0-11.217,0-22.434,0-33.649C352.797,260.022,352.375,259.6,351.869,259.6z"/>
				<g>
					<circle style="fill:#FCB830;" cx="351.684" cy="286.904" r="5.223"/>
					<g>
						<path style="fill:#FCB830;" d="M347.429,288.125c-1.198,6.363-2.393,12.728-3.59,19.098c-0.196,1.025,1.379,1.467,1.572,0.434
							c1.198-6.367,2.395-12.734,3.592-19.102C349.198,287.527,347.622,287.088,347.429,288.125z"/>
						<path style="fill:#FCB830;" d="M355.938,288.125c-0.192-1.037-1.769-0.598-1.573,0.43c1.196,6.367,2.393,12.734,3.591,19.102
							c0.193,1.033,1.77,0.592,1.574-0.434C358.332,300.853,357.136,294.488,355.938,288.125z"/>
						<path style="fill:#FCB830;" d="M352.406,288.998c-0.174-0.217-0.448-0.316-0.723-0.291c-0.275-0.025-0.55,0.074-0.725,0.291
							c-0.221-0.705-1.501-0.594-1.601,0.32c-0.652,6.039-1.305,12.08-1.959,18.119c-0.112,1.045,1.522,1.037,1.633,0
							c0.584-5.406,1.17-10.813,1.754-16.219c0,5.406,0,10.814,0,16.219c0,0.563,0.464,0.813,0.897,0.775
							c0.434,0.037,0.897-0.213,0.897-0.775c0-5.404,0-10.813,0-16.219c0.583,5.406,1.169,10.813,1.753,16.219
							c0.112,1.037,1.747,1.045,1.633,0c-0.652-6.039-1.305-12.08-1.959-18.119C353.907,288.404,352.629,288.293,352.406,288.998z"
							/>
					</g>
				</g>
			</g>
		</g>
	</g>
	<path style="fill:#D8F5F9;" d="M271.816,66.452c-2.926,0-5.531,1.351-7.24,3.46c-2.812-4.449-7.766-7.408-13.418-7.408
		c-4.648,0-8.819,2.006-11.721,5.189c-5.219-7.96-14.2-13.231-24.431-13.231c-10.82,0-20.243,5.895-25.294,14.634
		c-3.006-4.251-7.952-7.031-13.554-7.031c-6.823,0-12.678,4.118-15.231,10.001h27.268h3.195h45.204h5.224h21.446h2.458h14.647
		C278.935,68.763,275.646,66.452,271.816,66.452z"/>
	<path style="fill:#D8F5F9;" d="M124.63,112.157c-10.821,0-20.243,5.895-25.294,14.634c-3.005-4.251-7.952-7.031-13.554-7.031
		c-6.823,0-12.678,4.118-15.231,10.001h27.268h3.195h50.428C146.945,119.406,136.64,112.157,124.63,112.157z"/>
	<path style="fill:#D8F5F9;" d="M421.41,90.093c-1.988,0-3.819,0.665-5.289,1.781c-5.121-8.451-14.39-14.106-24.992-14.106
		c-10.82,0-20.243,5.895-25.294,14.634c-3.006-4.251-7.952-7.031-13.554-7.031c-6.823,0-12.679,4.118-15.232,10.001h27.269h3.195
		h45.857h4.57h11.509C428.101,92.267,425.011,90.093,421.41,90.093z"/>
	<g>
		<path style="fill:#3F2119;" d="M273.03,200.746c0,0-1.905,4.412-3.28,9.29c-1.375,4.877-1.336,8.533-4.293,12.768
			c-2.957,4.235-4.664,6.86-2.332,11.86s-2.827,10.018,1.235,14.541c4.063,4.523,22.765,6.708,27.265,2.708
			c4.5-3.999,1.471-13.374,2.985-14.999c1.515-1.625,0.76-9.757-0.985-13c-1.745-3.243-2.48-15.879-4.428-20.752L273.03,200.746z"/>
		<path style="fill:#21B58A;" d="M267.653,260.783c0,0-1.705,10.775,11.516,10.775s11.352-9.853,11.352-9.853
			S274.445,262.138,267.653,260.783z"/>
		<path style="fill:#FFB89F;" d="M278.62,219.22c0,0-0.524,3.752-3.316,5.408c0,0,4.626,3.579,8.989,0.523
			c0,0-1.047-3.402-1.222-5.932H278.62z"/>
		<g>
			<path style="fill:#FFB89F;" d="M289.552,210.035c0,6.331-3.952,11.463-8.823,11.463c-4.873,0-8.824-5.132-8.824-11.463
				c0-6.332,3.951-11.463,8.824-11.463C285.6,198.572,289.552,203.704,289.552,210.035z"/>
			<path style="fill:#3F2119;" d="M271.93,210.824c0,0,10.108,0.198,11.643-5.267c0,0,3.345,5.249,5.849,6.393
				c0,0,3.021-15.229-8.692-15.229S271.93,210.824,271.93,210.824z"/>
			<path style="fill:#FFB89F;" d="M273.046,212.131c0,0.735-0.444,1.332-0.992,1.332c-0.548,0-0.992-0.597-0.992-1.332
				c0-0.736,0.444-1.333,0.992-1.333C272.602,210.799,273.046,211.395,273.046,212.131z"/>
			<path style="fill:#FFB89F;" d="M290.413,212.131c0,0.735-0.444,1.332-0.992,1.332c-0.548,0-0.992-0.597-0.992-1.332
				c0-0.736,0.444-1.333,0.992-1.333C289.969,210.799,290.413,211.395,290.413,212.131z"/>
		</g>
		<g>
			<path style="fill:#FFB89F;" d="M266.5,237.413c0,0,0.059,10.745,5.404,15.31l-2.975,2.939c0,0-9.805-8.249-6.305-19.749
				L266.5,237.413z"/>
			<path style="fill:#FFB89F;" d="M293.374,237.413c0,0-0.059,10.745-5.404,15.31l2.975,2.939c0,0,9.805-8.249,6.305-19.749
				L293.374,237.413z"/>
		</g>
		<path style="fill:#FCB830;" d="M275.304,224.628c0,0,4.737,2.687,8.989,0.523c0,0,8.143,0.637,9.508,1.525
			c2.78,1.808,5.558,10.108,5.558,10.108l-6.449,2.381l-0.894-4.268c0,0,0.595,6.848-2.879,8.039c0,0,1.359,11.065,4.139,19.6
			c0,0-18.565,3.078-27.818-2.938c0,0,4.925-7.633,5.62-16.266c0,0-3.772-4.368-2.283-8.932l-1.291,4.862l-6.251-2.977
			c0,0,3.076-9.413,5.558-10.206C269.289,225.287,275.304,224.628,275.304,224.628z"/>
		<g>
			<g>
				<path style="fill:#3DD8B0;" d="M275.541,301.852c0,0,3.579-18.434,3.628-30.293c0.051-11.858-4.44-16.16-8.411-11.682
					c-3.932,4.438-3.216,30.52,0.201,42.68L275.541,301.852z"/>
				<path style="fill:#FFB89F;" d="M275.541,301.852c0,0,0.108,2.512,0.841,4.322c0.732,1.809,2.368,7.625-0.978,8.467
					c-3.348,0.848-3.834-0.623-4.135-4.078c-0.299-3.453,0.753-6.09-0.31-8.006L275.541,301.852z"/>
				<path style="fill:#E5387F;" d="M277.271,309.387c0,0,2.108,7.969-1.573,9.307c-3.684,1.334-4.676-7.188-4.455-8.529
					C271.242,310.164,274.55,316.764,277.271,309.387z"/>
			</g>
			<g>
				<path style="fill:#3DD8B0;" d="M283.028,302.123c0,0-3.548-18.438-3.578-30.297c-0.029-11.861,4.469-16.15,8.43-11.664
					c3.927,4.447,3.168,30.529-0.27,42.682L283.028,302.123z"/>
				<path style="fill:#FFB89F;" d="M283.028,302.123c0,0-0.112,2.514-0.848,4.322c-0.734,1.809-2.38,7.621,0.964,8.473
					c3.346,0.85,3.837-0.617,4.141-4.07c0.306-3.453-0.74-6.092,0.324-8.004L283.028,302.123z"/>
				<path style="fill:#E5387F;" d="M281.287,309.658c0,0-2.124,7.967,1.558,9.309c3.681,1.344,4.688-7.178,4.47-8.518
					C287.314,310.449,283.994,317.041,281.287,309.658z"/>
			</g>
		</g>
		<g>
			<g>
				<polygon style="fill:#8B97D1;" points="292.033,257.6 267.283,257.6 264.283,241.976 295.033,241.976 				"/>
				<rect x="264.564" y="257.6" style="fill:#6F81C1;" width="30.187" height="1.928"/>
			</g>
			<path style="fill:#6F81C1;" d="M281.236,250.116c0,0.872-0.707,1.579-1.579,1.579c-0.872,0-1.578-0.708-1.578-1.579
				c0-0.872,0.706-1.579,1.578-1.579C280.529,248.538,281.236,249.244,281.236,250.116z"/>
		</g>
	</g>
	<g>
		<g>
			<g>
				<g>
					<path style="fill:#FFB89F;" d="M225.039,282.353c0,0,3.48,13.828,0.311,17.527l-4.881-2.057c0,0,0.694-8.953-1.065-15.471
						H225.039z"/>
					<path style="fill:#FFB89F;" d="M188.697,282.353c0,0-3.48,13.828-0.311,17.527l4.881-2.057c0,0-0.694-8.953,1.065-15.471
						H188.697z"/>
				</g>
				<g>
					<path style="fill:#0171BD;" d="M219.995,273.463c0,0,5.409,4.014,5.226,9.533c0,0-2.865,1.861-5.692,1.772L219.995,273.463z"/>
					<path style="fill:#FFB89F;" d="M208.744,266.508c0,0,0.595,4.018,3.604,5.771c0,0-4.929,3.879-9.636,0.641
						c0,0,1.095-3.658,1.26-6.373L208.744,266.508z"/>
					<path style="fill:#0171BD;" d="M210.549,270.68c0,0-2.682,3.955-7.485,0.334c0,0-7.866,1.357-9.762,2.961
						c0,0,0.749,36.133,0.304,40.113l25.922-0.389c0,0,0.324-38.326,0.466-40.236L210.549,270.68z"/>
					<path style="fill:#0171BD;" d="M193.302,273.975c0,0-5.115,4.852-4.796,9.471c0,0,2.171,1.205,4.997,1.068L193.302,273.975z"/>
					<g>
						<path style="fill:#FFB89F;" d="M214.711,258.727c-0.035,0.869,0.474,1.596,1.137,1.621c0.663,0.025,1.228-0.657,1.262-1.525
							c0.035-0.869-0.473-1.596-1.136-1.622C215.31,257.174,214.745,257.857,214.711,258.727z"/>
						<path style="fill:#FFB89F;" d="M196.359,257.998c-0.034,0.869,0.475,1.596,1.138,1.621c0.663,0.025,1.227-0.656,1.261-1.525
							c0.035-0.87-0.474-1.596-1.136-1.621C196.96,256.445,196.395,257.129,196.359,257.998z"/>
						<g>
							<g>
								<path style="fill:#FFB89F;" d="M197.251,256.457c-0.269,6.787,3.748,12.457,8.971,12.664
									c5.223,0.207,9.675-5.127,9.944-11.914c0.27-6.785-3.747-12.455-8.969-12.663
									C201.975,244.337,197.521,249.67,197.251,256.457z"/>
							</g>
							<path style="fill:#AD4B07;" d="M214.231,248.711c-0.266-5.425-6.68-4.322-6.68-4.322s-3.923-0.105-8.208,1.499
								c-3.728,1.394-3.913,4.086-1.811,4.448c-0.613,4.047,0.777,8.012,0.777,8.012c0.147-3.092,0.732-5.268,1.533-6.83
								c4.698,2.303,13.311,0.637,13.311,0.637c1.377,1.17,2.941,6.891,2.941,6.891
								C218.287,247.309,214.231,248.711,214.231,248.711z"/>
						</g>
					</g>
				</g>
			</g>
			<g>
				<g>
					<path style="fill:#FFB89F;" d="M219.88,322.598c0,0,2.301,0.863,4.209,0.896c1.906,0.031,7.762,0.783,7.243,4.113
						c-0.519,3.336-2.028,3.211-5.249,2.162c-3.221-1.053-5.189-3.004-7.319-2.781L219.88,322.598z"/>
					<path style="fill:#312E35;" d="M227.319,323.924c0,0,7.972,1.147,7.768,4.969c-0.208,3.822-8.251,1.459-9.373,0.75
						C225.714,329.643,232.914,329.188,227.319,323.924z"/>
					<path style="fill:#CC6E58;" d="M231.835,323.068c0,0-27.166-10.73-37.812-15.307s-16.231-2.182-13.72,3.102
						c2.49,5.232,36.214,20.357,48.456,21.932L231.835,323.068z"/>
				</g>
				<g>
					<path style="fill:#FFB89F;" d="M193.29,322.598c0,0-2.301,0.863-4.209,0.896c-1.906,0.031-7.762,0.783-7.242,4.113
						c0.518,3.336,2.027,3.211,5.248,2.162c3.221-1.053,5.189-3.004,7.319-2.781L193.29,322.598z"/>
					<path style="fill:#312E35;" d="M185.852,323.924c0,0-7.973,1.147-7.768,4.969c0.207,3.822,8.25,1.459,9.373,0.75
						C187.457,329.643,180.258,329.188,185.852,323.924z"/>
					<path style="fill:#DD7662;" d="M181.336,323.068c0,0,27.166-10.73,37.812-15.307c10.646-4.576,16.231-2.182,13.72,3.102
						c-2.489,5.232-36.213,20.357-48.456,21.932L181.336,323.068z"/>
				</g>
			</g>
		</g>
		<path style="fill:#F4EAE9;" d="M200.102,273.461c0,0-0.467,19.029,0.415,19.783c0.882,0.756,4.36,3.076,7.37,2.846
			c3.01-0.232,6.072-3.02,6.28-3.484c0.207-0.465,0.467-19.463-0.311-19.658c-0.779-0.197-3.374,6.131-4.775,6.131
			c-1.744,0-3.226,0.523-4.359-0.057C203.587,278.44,200.517,273.244,200.102,273.461z"/>
		<path style="fill:#FFFFFF;" d="M199.276,273.975c0,0-0.521,18.996,0.463,19.75c0.985,0.754,4.869,3.072,8.23,2.84
			c3.362-0.233,6.781-3.014,7.013-3.477c0.232-0.465,0.521-19.43-0.348-19.625c-0.87-0.197-3.768,6.119-5.333,6.119
			c-1.947,0-3.601,0.523-4.868-0.057C203.168,278.945,199.74,273.758,199.276,273.975z"/>
		<g>
			<g>
				<path style="fill:#D1432D;" d="M197.936,273.949c0,0-0.311,19.127,0.387,20.289c0.699,1.164,5.647,3.09,5.647,3.09
					s0.111-16.99,0-17.457C203.859,279.408,197.936,273.949,197.936,273.949z"/>
				<path style="fill:#D1432D;" d="M215.921,273.949c0,0,0.31,19.127-0.388,20.289c-0.698,1.164-5.148,3.09-5.148,3.09
					s-0.112-16.99,0-17.457C210.495,279.408,215.921,273.949,215.921,273.949z"/>
			</g>
			<g>
				<path style="fill:#AF281B;" d="M203.971,279.871c0,0,4.503,0.854,6.414,0v17.457c0,0-5.138,1.629-6.414,0V279.871z"/>
				<path style="fill:#D1432D;" d="M204.02,281.844c0,0,3.232,0.869,6.315,0l0,1.971c0,0-3.31,1.275-6.315,0V281.844z"/>
				<path style="fill:#D1432D;" d="M203.661,292.24c0,0,3.599,0.969,7.033,0l0,2.195c0,0-3.686,1.42-7.033,0V292.24z"/>
			</g>
		</g>
		<g>
			<path style="fill:#FFC7B8;" d="M214.039,282.355c0.889-0.049,1.708,2.553,1.708,2.553s0-1.67,0.333-1.965
				c0.333-0.293,1.089,2.895,1.089,2.895s4.989,5.822,7.683,9.184c2.693,3.363,0.717,6.053,0.717,6.053
				c-1.252,0.477-2.975-0.361-4.976-2.016c-1.999-1.656-4.775-11.41-4.775-11.41s-3.036-1.912-3.245-2.74
				C212.363,284.08,213.148,282.404,214.039,282.355z"/>
		</g>
		<g>
			<path style="fill:#FFC7B8;" d="M199.696,282.355c-0.889-0.049-1.707,2.553-1.707,2.553s0-1.67-0.333-1.965
				c-0.333-0.293-1.089,2.895-1.089,2.895s-4.989,5.822-7.683,9.184c-2.693,3.363-0.717,6.053-0.717,6.053
				c1.252,0.477,2.975-0.361,4.976-2.016c1.999-1.656,4.775-11.41,4.775-11.41s3.036-1.912,3.244-2.74
				C201.372,284.08,200.587,282.404,199.696,282.355z"/>
		</g>
	</g>
</g>
<g id="DESIGNED_BY_FREEPIK">
	<g>
		<g id="XMLID_319_">
			<g id="XMLID_338_">
				<path id="XMLID_346_" style="fill:#1D262D;" d="M260.103,467.15c-0.432,0.443-0.803,0.932-1.107,1.453l-0.465-0.242
					c-0.068-0.297-0.35-0.502-0.66-0.465c-0.33,0.039-0.566,0.338-0.529,0.67c0.039,0.33,0.34,0.566,0.67,0.527
					c0.066-0.006,0.127-0.025,0.184-0.051l0.451,0.234c-0.25,0.553-0.432,1.139-0.539,1.742l0.748,0.133
					c0.229-1.307,0.85-2.508,1.791-3.473L260.103,467.15z"/>
				<path id="XMLID_345_" style="fill:#1D262D;" d="M265.592,464.848c-0.172,0-0.342,0.006-0.51,0.018l-0.074-0.627
					c0.188-0.148,0.297-0.389,0.266-0.645c-0.045-0.393-0.402-0.674-0.795-0.627c-0.393,0.045-0.674,0.402-0.627,0.795
					c0.029,0.254,0.189,0.461,0.404,0.565l0.072,0.623c-0.713,0.117-1.402,0.332-2.059,0.647l0.326,0.684
					c0.936-0.447,1.941-0.674,2.996-0.674c0.496,0,0.992,0.053,1.475,0.158l0.16-0.74
					C266.691,464.906,266.143,464.848,265.592,464.848z"/>
				<path id="XMLID_344_" style="fill:#1D262D;" d="M272.193,467.395c0.332-0.039,0.566-0.34,0.525-0.672
					c-0.039-0.33-0.34-0.566-0.672-0.525c-0.309,0.039-0.535,0.305-0.529,0.609l-0.416,0.363c-0.418-0.43-0.891-0.813-1.408-1.141
					l-0.404,0.643c1.135,0.715,2.021,1.727,2.564,2.924l0.69-0.313c-0.25-0.553-0.566-1.07-0.941-1.545l0.402-0.35
					C272.064,467.4,272.129,467.404,272.193,467.395z"/>
				<path id="XMLID_343_" style="fill:#1D262D;" d="M265.045,475.057c-0.387,0.023-0.775,0.035-1.158,0.035
					c-0.879,0-1.732-0.06-2.478-0.18c-0.391-0.062-0.846-0.154-1.27-0.292c1.047,1.861,3.068,3.125,5.389,3.125
					c2.855,0,5.262-1.916,5.949-4.503c-0.682,0.449-1.506,0.825-2.459,1.122C267.838,474.732,266.463,474.972,265.045,475.057z"/>
				<path id="XMLID_339_" style="fill:#1D262D;" d="M265.592,466.365c-3.352,0-6.08,2.666-6.08,5.943
					c0,0.425,0.047,0.849,0.137,1.261c0.674,0.483,2.707,0.891,5.348,0.732c2.881-0.174,5.297-0.958,6.672-2.16
					c-0.004-0.193-0.02-0.389-0.045-0.58C271.244,468.598,268.65,466.365,265.592,466.365z M263.432,472.88
					c-1.02,0-1.85-0.831-1.85-1.851s0.83-1.85,1.85-1.85c1.02,0,1.85,0.83,1.85,1.85S264.451,472.88,263.432,472.88z
					 M268.17,471.971c-0.75,0-1.361-0.609-1.361-1.359s0.611-1.361,1.361-1.361s1.359,0.611,1.359,1.361
					S268.92,471.971,268.17,471.971z"/>
			</g>
			<path id="XMLID_336_" style="fill:#1D262D;" d="M281.596,468.232c-0.295-0.117-0.807-0.31-1.383-0.238
				c-0.551,0.068-0.844,0.34-0.844,1.006v0.867h2.229v1.717h-2.229v5.455h-1.932v-5.455h-1.34v-1.717h1.34v-0.889
				c0-1.68,0.895-2.783,2.568-2.783c0.643,0,1.156,0.121,1.59,0.309V468.232z"/>
			<path id="XMLID_334_" style="fill:#1D262D;" d="M286.297,471.563c-0.176-0.029-0.357-0.045-0.525-0.045
				c-0.894,0-1.51,0.547-1.51,1.613v3.908h-1.932v-7.172h1.873v0.783c0.451-0.672,1.139-0.977,2.02-0.977
				c0.414,0,0.848,0.129,1.096,0.338L286.297,471.563z"/>
			<path id="XMLID_331_" style="fill:#1D262D;" d="M293.965,473.442c0,0.222-0.016,0.488-0.037,0.651h-5.084
				c0.207,1.036,0.932,1.487,1.842,1.487c0.623,0,1.295-0.252,1.815-0.688l1.133,1.243c-0.814,0.748-1.852,1.089-3.057,1.089
				c-2.199,0-3.725-1.496-3.725-3.753c0-2.259,1.48-3.798,3.627-3.798C292.543,469.674,293.957,471.207,293.965,473.442z
				 M288.852,472.776h3.174c-0.178-0.919-0.732-1.437-1.561-1.437C289.555,471.34,289.021,471.887,288.852,472.776z"/>
			<path id="XMLID_328_" style="fill:#1D262D;" d="M301.619,473.442c0,0.222-0.016,0.488-0.037,0.651h-5.086
				c0.207,1.036,0.934,1.487,1.844,1.487c0.621,0,1.295-0.252,1.813-0.688l1.133,1.243c-0.814,0.748-1.85,1.089-3.057,1.089
				c-2.199,0-3.723-1.496-3.723-3.753c0-2.259,1.48-3.798,3.627-3.798C300.197,469.674,301.611,471.207,301.619,473.442z
				 M296.504,472.776h3.176c-0.178-0.919-0.734-1.437-1.563-1.437C297.207,471.34,296.674,471.887,296.504,472.776z"/>
			<path id="XMLID_325_" style="fill:#1D262D;" d="M309.965,473.449c0,2.154-1.496,3.775-3.473,3.775
				c-0.961,0-1.643-0.378-2.109-0.933V480h-1.924v-10.133h1.887v0.791c0.467-0.584,1.154-0.984,2.139-0.984
				C308.469,469.674,309.965,471.295,309.965,473.449z M304.287,473.449c0,1.133,0.748,1.977,1.844,1.977
				c1.139,0,1.85-0.881,1.85-1.977s-0.711-1.977-1.85-1.977C305.035,471.473,304.287,472.316,304.287,473.449z"/>
			<path id="XMLID_322_" style="fill:#1D262D;" d="M313.068,467.52c0,0.697-0.541,1.23-1.236,1.23c-0.697,0-1.229-0.533-1.229-1.23
				c0-0.695,0.531-1.242,1.229-1.242C312.527,466.277,313.068,466.824,313.068,467.52z M312.809,477.039h-1.932v-7.172h1.932
				V477.039z"/>
			<path id="XMLID_320_" style="fill:#1D262D;" d="M316.031,472.42l2.703-2.553h2.367l-3.479,3.375l3.502,3.797h-2.377l-2.717-2.901
				v2.901H314.1v-10.658h1.932V472.42z"/>
		</g>
		<g>
			<path style="fill:#1D262D;" d="M184.412,476.975v-1.055c-0.527,0.718-1.391,1.23-2.387,1.23c-1.846,0-3.15-1.406-3.15-3.706
				c0-2.257,1.289-3.722,3.15-3.722c0.951,0,1.816,0.469,2.387,1.246v-3.766h1.1v9.772H184.412z M184.412,475.056v-3.208
				c-0.395-0.615-1.244-1.143-2.123-1.143c-1.422,0-2.271,1.172-2.271,2.739c0,1.567,0.85,2.725,2.271,2.725
				C183.168,476.169,184.018,475.671,184.412,475.056z"/>
			<path style="fill:#1D262D;" d="M186.932,473.43c0-2.051,1.465-3.707,3.486-3.707c2.139,0,3.398,1.67,3.398,3.795v0.278h-5.727
				c0.088,1.333,1.025,2.446,2.549,2.446c0.805,0,1.625-0.322,2.182-0.894l0.527,0.718c-0.703,0.703-1.654,1.084-2.813,1.084
				C188.441,477.15,186.932,475.642,186.932,473.43z M190.404,470.631c-1.51,0-2.256,1.275-2.314,2.359h4.643
				C192.719,471.935,192.016,470.631,190.404,470.631z"/>
			<path style="fill:#1D262D;" d="M194.607,476.037l0.57-0.791c0.469,0.542,1.363,1.011,2.33,1.011c1.084,0,1.67-0.513,1.67-1.216
				c0-1.714-4.381-0.659-4.381-3.281c0-1.1,0.953-2.037,2.637-2.037c1.201,0,2.051,0.455,2.623,1.025l-0.514,0.762
				c-0.424-0.512-1.201-0.893-2.109-0.893c-0.967,0-1.566,0.482-1.566,1.113c0,1.553,4.379,0.527,4.379,3.281
				c0,1.187-0.951,2.139-2.783,2.139C196.307,477.15,195.324,476.799,194.607,476.037z"/>
			<path style="fill:#1D262D;" d="M201.477,468.156c0-0.41,0.338-0.748,0.732-0.748c0.41,0,0.748,0.338,0.748,0.748
				c0,0.41-0.338,0.732-0.748,0.732C201.814,468.889,201.477,468.566,201.477,468.156z M201.668,476.975v-7.076h1.098v7.076H201.668
				z"/>
			<path style="fill:#1D262D;" d="M204.582,478.791l0.557-0.82c0.586,0.703,1.289,0.967,2.299,0.967
				c1.172,0,2.271-0.571,2.271-2.124v-1.011c-0.514,0.718-1.377,1.26-2.373,1.26c-1.846,0-3.15-1.377-3.15-3.662
				c0-2.271,1.289-3.678,3.15-3.678c0.951,0,1.801,0.469,2.373,1.246v-1.07h1.098v6.871c0,2.344-1.641,3.076-3.369,3.076
				C206.236,479.846,205.416,479.61,204.582,478.791z M209.709,474.939v-3.091c-0.381-0.615-1.23-1.143-2.109-1.143
				c-1.422,0-2.27,1.127-2.27,2.695c0,1.553,0.848,2.695,2.27,2.695C208.479,476.096,209.328,475.554,209.709,474.939z"/>
			<path style="fill:#1D262D;" d="M217.414,476.975v-4.629c0-1.246-0.631-1.641-1.582-1.641c-0.865,0-1.686,0.527-2.096,1.098v5.172
				h-1.098v-7.076h1.098v1.025c0.498-0.586,1.465-1.201,2.52-1.201c1.48,0,2.256,0.748,2.256,2.285v4.967H217.414z"/>
			<path style="fill:#1D262D;" d="M219.932,473.43c0-2.051,1.465-3.707,3.486-3.707c2.139,0,3.398,1.67,3.398,3.795v0.278h-5.727
				c0.088,1.333,1.025,2.446,2.549,2.446c0.805,0,1.625-0.322,2.182-0.894l0.527,0.718c-0.703,0.703-1.654,1.084-2.813,1.084
				C221.441,477.15,219.932,475.642,219.932,473.43z M223.404,470.631c-1.51,0-2.256,1.275-2.314,2.359h4.643
				C225.719,471.935,225.016,470.631,223.404,470.631z"/>
			<path style="fill:#1D262D;" d="M233.35,476.975v-1.055c-0.527,0.718-1.391,1.23-2.387,1.23c-1.846,0-3.15-1.406-3.15-3.706
				c0-2.257,1.289-3.722,3.15-3.722c0.951,0,1.816,0.469,2.387,1.246v-3.766h1.1v9.772H233.35z M233.35,475.056v-3.208
				c-0.395-0.615-1.244-1.143-2.123-1.143c-1.422,0-2.271,1.172-2.271,2.739c0,1.567,0.85,2.725,2.271,2.725
				C232.105,476.169,232.955,475.671,233.35,475.056z"/>
			<path style="fill:#1D262D;" d="M239.691,476.975v-9.772h1.1v3.766c0.57-0.777,1.42-1.246,2.387-1.246
				c1.846,0,3.15,1.465,3.15,3.722c0,2.3-1.305,3.706-3.15,3.706c-0.996,0-1.859-0.513-2.387-1.23v1.055H239.691z M242.9,476.169
				c1.436,0,2.285-1.157,2.285-2.725c0-1.567-0.85-2.739-2.285-2.739c-0.865,0-1.729,0.527-2.109,1.143v3.208
				C241.172,475.671,242.035,476.169,242.9,476.169z"/>
			<path style="fill:#1D262D;" d="M247.529,478.747c0.16,0.073,0.424,0.117,0.6,0.117c0.484,0,0.807-0.161,1.055-0.747l0.469-1.069
				l-2.959-7.15h1.188l2.357,5.802l2.344-5.802h1.201l-3.545,8.512c-0.424,1.024-1.143,1.421-2.08,1.436
				c-0.234,0-0.6-0.044-0.805-0.104L247.529,478.747z"/>
		</g>
	</g>
</g>
</svg>
